<?xml version="1.0" encoding="UTF-8"?>
<svg version="1.1" xmlns="http://www.w3.org/2000/svg" width="538" height="80">
<path d="M0 0 C177.54 0 355.08 0 538 0 C538 26.4 538 52.8 538 80 C360.46 80 182.92 80 0 80 C0 53.6 0 27.2 0 0 Z " fill="#1B2136" transform="translate(0,0)"/>
<path d="M0 0 C2.81351786 1.28895717 4.9325707 2.66268505 7.171875 4.79296875 C7.75026123 5.33783936 8.32864746 5.88270996 8.92456055 6.4440918 C9.52695557 7.0194165 10.12935059 7.59474121 10.75 8.1875 C12.00055332 9.3653788 13.25185091 10.54246793 14.50390625 11.71875 C15.10477051 12.28464844 15.70563477 12.85054687 16.32470703 13.43359375 C20.36942849 17.21542599 24.38955643 20.92637095 29 24 C29.27917202 26.82556504 29.37194852 29.4290586 29.328125 32.25390625 C29.32625183 33.06995834 29.32437866 33.88601044 29.32244873 34.72679138 C29.31572221 36.4525867 29.30179579 38.17836661 29.28125 39.90405273 C29.25008442 42.55531874 29.24027964 45.20599084 29.234375 47.85742188 C29.22520577 49.5312573 29.21483025 51.20508664 29.203125 52.87890625 C29.19675018 54.07574791 29.19675018 54.07574791 29.19024658 55.29676819 C29.11715232 60.88284768 29.11715232 60.88284768 28 62 C26.58429877 62.08651611 25.164405 62.10704904 23.74609375 62.09765625 C22.89208984 62.09443359 22.03808594 62.09121094 21.15820312 62.08789062 C20.26037109 62.07951172 19.36253906 62.07113281 18.4375 62.0625 C17.53580078 62.05798828 16.63410156 62.05347656 15.70507812 62.04882812 C13.47002411 62.03700244 11.23500398 62.01906638 9 62 C9 56.39 9 50.78 9 45 C3.39 45 -2.22 45 -8 45 C-8 50.61 -8 56.22 -8 62 C-14.27 62 -20.54 62 -27 62 C-29.42332807 26.06294224 -29.42332807 26.06294224 -23.94140625 18.60546875 C-20.92860758 15.54667021 -17.55443745 13.20427648 -13.83349609 11.08007812 C-11.36293592 9.62471751 -9.3827386 7.78415581 -7.3125 5.8125 C-4.95401514 3.75763618 -2.51629894 1.85844301 0 0 Z " fill="#FBFBFB" transform="translate(119,16)"/>
<path d="M0 0 C4.60087294 2.46073053 8.07193793 5.67973994 11.8125 9.25 C13.06302042 10.42791374 14.31431635 11.60500471 15.56640625 12.78125 C16.16211426 13.34199219 16.75782227 13.90273437 17.37158203 14.48046875 C19.87947305 16.82066571 22.46056799 19.06969034 25.05859375 21.30859375 C28.35390277 24.17955714 31.57178524 27.13690302 34.80078125 30.08203125 C37.04822519 32.12519492 37.04822519 32.12519492 40 34 C39.6875 35.875 39.6875 35.875 39 38 C38.01 38.66 37.02 39.32 36 40 C35.05640625 39.14728516 35.05640625 39.14728516 34.09375 38.27734375 C29.4501472 34.0883105 24.78742355 29.92629985 20.0703125 25.8203125 C17.65172039 23.6937768 15.26346037 21.53530894 12.875 19.375 C12.03453125 18.6221875 11.1940625 17.869375 10.328125 17.09375 C8.93026626 15.8366153 7.54157753 14.56900451 6.171875 13.28125 C4.51069853 11.71585765 4.51069853 11.71585765 2 10 C-1.19449235 10.34833138 -2.89202157 11.50325555 -5.171875 13.6953125 C-5.74969727 14.2428418 -6.32751953 14.79037109 -6.92285156 15.35449219 C-7.52581055 15.93875977 -8.12876953 16.52302734 -8.75 17.125 C-10.00965198 18.32111832 -11.27006268 19.51643815 -12.53125 20.7109375 C-13.13324219 21.28424805 -13.73523438 21.85755859 -14.35546875 22.44824219 C-16.85575261 24.80747678 -19.44501344 27.0552616 -22.046875 29.30078125 C-26.08121697 32.81065876 -30.03267298 36.4147721 -34 40 C-35.9375 39.1875 -35.9375 39.1875 -38 38 C-38.495 36.515 -38.495 36.515 -39 35 C-34.8674953 30.65435752 -30.62753603 26.61719941 -25.9375 22.875 C-20.44020656 18.46947673 -15.3206555 13.72347482 -10.21459961 8.87255859 C-6.91944469 5.75000076 -3.60225951 2.77360285 0 0 Z " fill="#F5F5F6" transform="translate(119,2)"/>
<path d="M0 0 C7.26 0 14.52 0 22 0 C22 8.58 22 17.16 22 26 C20.02 26 18.04 26 16 26 C14.03061502 23.63914706 12.61827367 21.63100599 11.125 19 C10.7228125 18.33226563 10.320625 17.66453125 9.90625 16.9765625 C8.91789927 15.32931129 7.95628934 13.66606855 7 12 C6.67 16.62 6.34 21.24 6 26 C4.02 26 2.04 26 0 26 C0 17.42 0 8.84 0 0 Z " fill="#F5F5F6" transform="translate(174,0)"/>
<path d="M0 0 C0.94746094 -0.01675781 1.89492187 -0.03351562 2.87109375 -0.05078125 C5.93375309 0.36261109 7.28868559 1.27520529 9.5625 3.3125 C8.9025 4.6325 8.2425 5.9525 7.5625 7.3125 C6.5725 7.3125 5.5825 7.3125 4.5625 7.3125 C4.2325 6.9825 3.9025 6.6525 3.5625 6.3125 C0.6467309 5.89547878 0.6467309 5.89547878 -2.4375 6.3125 C-5.048637 8.5754854 -5.39915814 9.93674982 -5.75 13.375 C-5.64703488 16.50039679 -5.64703488 16.50039679 -3.4375 19.3125 C0.0625 19.8125 0.0625 19.8125 3.5625 19.3125 C4.2225 18.3225 4.8825 17.3325 5.5625 16.3125 C3.5825 16.3125 1.6025 16.3125 -0.4375 16.3125 C-0.4375 14.6625 -0.4375 13.0125 -0.4375 11.3125 C3.5225 11.3125 7.4825 11.3125 11.5625 11.3125 C12.04871272 18.48413759 12.04871272 18.48413759 9.875 22.1875 C6.38033048 25.39881793 3.80166483 26.15478811 -0.875 26.75 C-5.68687303 26.15906822 -7.07161477 24.75666163 -10.4375 21.3125 C-12.98257355 17.09097868 -13.13001067 13.12670068 -12.4375 8.3125 C-9.34986312 2.45663695 -6.65057055 0.02707152 0 0 Z " fill="#F2F3F4" transform="translate(185.4375,42.6875)"/>
<path d="M0 0 C1.98 0 3.96 0 6 0 C6 3.3 6 6.6 6 10 C8.64 10 11.28 10 14 10 C14 6.7 14 3.4 14 0 C15.98 0 17.96 0 20 0 C20 8.58 20 17.16 20 26 C18.02 26 16.04 26 14 26 C14 22.37 14 18.74 14 15 C11.36 15 8.72 15 6 15 C6 18.63 6 22.26 6 26 C4.02 26 2.04 26 0 26 C0 17.42 0 8.84 0 0 Z " fill="#F3F3F4" transform="translate(274,43)"/>
<path d="M0 0 C1.65 0 3.3 0 5 0 C5 8.58 5 17.16 5 26 C2.33333333 26 -0.33333333 26 -3 26 C-3.969375 26.0825 -4.93875 26.165 -5.9375 26.25 C-9 26 -9 26 -11.375 24.5625 C-13.77457136 20.77856055 -13.90943575 17.35571858 -13 13 C-10.9375 10.375 -10.9375 10.375 -8 9 C-4.1875 9.25 -4.1875 9.25 -1 10 C-0.67 6.7 -0.34 3.4 0 0 Z " fill="#F5F6F6" transform="translate(233,0)"/>
<path d="M0 0 C0 5.61 0 11.22 0 17 C-12.64766228 17.70921471 -12.64766228 17.70921471 -16.078125 15.91015625 C-18.60475335 13.17297553 -18.99947188 11.03063101 -19.0625 7.375 C-16.00489391 -2.33739583 -8.75404627 -0.32422394 0 0 Z " fill="#EDEEEF" transform="translate(484,52)"/>
<path d="M0 0 C0 5.61 0 11.22 0 17 C-12.64766228 17.70921471 -12.64766228 17.70921471 -16.078125 15.91015625 C-18.60475335 13.17297553 -18.99947188 11.03063101 -19.0625 7.375 C-16.00489391 -2.33739583 -8.75404627 -0.32422394 0 0 Z " fill="#EDEEEF" transform="translate(438,52)"/>
<path d="M0 0 C0 5.61 0 11.22 0 17 C-12.64766228 17.70921471 -12.64766228 17.70921471 -16.078125 15.91015625 C-18.60475335 13.17297553 -18.99947188 11.03063101 -19.0625 7.375 C-16.00489391 -2.33739583 -8.75404627 -0.32422394 0 0 Z " fill="#EDEEEF" transform="translate(288,9)"/>
<path d="M0 0 C0.66 0.33 1.32 0.66 2 1 C1.67 2.65 1.34 4.3 1 6 C-1.64 6 -4.28 6 -7 6 C-7 6.66 -7 7.32 -7 8 C-6.04287109 8.50660156 -6.04287109 8.50660156 -5.06640625 9.0234375 C-4.24011719 9.46945313 -3.41382813 9.91546875 -2.5625 10.375 C-1.73878906 10.81585938 -0.91507812 11.25671875 -0.06640625 11.7109375 C2 13 2 13 3 15 C3.45404871 19.08643837 3.66920478 21.15809721 1.0625 24.4375 C-3.05886177 26.5402356 -6.45580092 26.71491016 -11 26 C-14.0625 24.5 -14.0625 24.5 -16 23 C-15.01 21.35 -14.02 19.7 -13 18 C-9.7 18.66 -6.4 19.32 -3 20 C-5.07375958 15.85248085 -5.31523679 15.57977875 -9.125 13.75 C-12.80064006 11.59807982 -12.80064006 11.59807982 -13.6640625 9.0078125 C-13.79089468 5.86006832 -13.41097107 3.57178583 -11.5625 1 C-7.75427974 -0.48613474 -4.04142208 -0.4057026 0 0 Z " fill="#F4F4F5" transform="translate(395,43)"/>
<path d="M0 0 C0 5.28 0 10.56 0 16 C-13.31154822 16.4930203 -13.31154822 16.4930203 -16.421875 14.265625 C-18.17412699 11.7500157 -18.5415462 10.53287257 -18.5 7.5 C-18.5103125 6.7471875 -18.520625 5.994375 -18.53125 5.21875 C-16.33329727 -3.96093491 -7.09411808 -0.78823534 0 0 Z " fill="#F4F4F5" transform="translate(217,10)"/>
<path d="M0 0 C2.625 2.125 2.625 2.125 4 5 C3.93822484 8.58295911 3.76840164 10.95217958 1.625 13.875 C-2.05882946 16.42534347 -5.67050026 16.44787928 -10 16 C-12.9375 13.9375 -12.9375 13.9375 -15 11 C-15.5625 7.4375 -15.5625 7.4375 -15 4 C-10.64874038 -1.51159552 -6.51729216 -1.66398949 0 0 Z " fill="#F2F2F3" transform="translate(312,53)"/>
<path d="M0 0 C1.98 0 3.96 0 6 0 C6.33 4.29 6.66 8.58 7 13 C7.99 12.01 8.98 11.02 10 10 C13.6875 9.8125 13.6875 9.8125 17 10 C15.60840337 13.47899158 14.36748512 14.48052501 11 16 C11.5053125 16.56589844 12.010625 17.13179687 12.53125 17.71484375 C13.1809375 18.44832031 13.830625 19.18179687 14.5 19.9375 C15.1496875 20.66839844 15.799375 21.39929688 16.46875 22.15234375 C18 24 18 24 18 25 C11.6 25.49230769 11.6 25.49230769 8.5625 23 C8.046875 22.34 7.53125 21.68 7 21 C6.67 22.65 6.34 24.3 6 26 C4.02 26 2.04 26 0 26 C0 17.42 0 8.84 0 0 Z " fill="#EEEEF0" transform="translate(251,0)"/>
<path d="M0 0 C1.65 0 3.3 0 5 0 C5.33 3.63 5.66 7.26 6 11 C6.33 10.67 6.66 10.34 7 10 C13.17588448 10.45747292 13.17588448 10.45747292 15.71484375 12.12890625 C17.65102903 14.94785077 17.28756042 17.31879919 17.1875 20.6875 C17.16042969 21.86699219 17.13335937 23.04648438 17.10546875 24.26171875 C17.07066406 25.16535156 17.03585937 26.06898437 17 27 C15.02 27 13.04 27 11 27 C10.67 23.37 10.34 19.74 10 16 C8.68 16 7.36 16 6 16 C5.67 19.3 5.34 22.6 5 26 C3.35 26 1.7 26 0 26 C0 17.42 0 8.84 0 0 Z " fill="#FEFEFE" transform="translate(488,42)"/>
<path d="M0 0 C2.8515625 -0.1875 2.8515625 -0.1875 6 0 C8.375 3 8.375 3 10 6 C10.53625 5.01 11.0725 4.02 11.625 3 C12.40875 2.01 13.1925 1.02 14 0 C17.1484375 -0.1875 17.1484375 -0.1875 20 0 C18.56682448 3.06454182 17.12769376 6.12625093 15.6875 9.1875 C15.08131836 10.48397461 15.08131836 10.48397461 14.46289062 11.80664062 C9.98406559 21.31048886 9.98406559 21.31048886 8 24 C4.8125 24.3125 4.8125 24.3125 2 24 C4 18 4 18 5.25 15.1875 C6.23998505 10.98006354 5.19480845 9.35065521 3.125 5.625 C2.55007813 4.56539062 1.97515625 3.50578125 1.3828125 2.4140625 C0.69832031 1.21910156 0.69832031 1.21910156 0 0 Z " fill="#F4F4F5" transform="translate(399,53)"/>
<path d="M0 0 C1.98 0 3.96 0 6 0 C6.33 3.63 6.66 7.26 7 11 C8.32 11 9.64 11 11 11 C11.33 7.37 11.66 3.74 12 0 C13.98 0 15.96 0 18 0 C18.76870092 10.71056619 18.76870092 10.71056619 16.0625 15.25 C11.92766225 17.61276443 8.65062803 18.02383229 4 17 C1.4375 15.25 1.4375 15.25 0 12 C-0.30872078 7.97616469 -0.23117476 4.0262938 0 0 Z " fill="#E7E7EA" transform="translate(199,52)"/>
<path d="M0 0 C4.37901837 0.78196757 5.85553233 2.09904311 8.5 5.625 C8.5 6.945 8.5 8.265 8.5 9.625 C4.87 9.625 1.24 9.625 -2.5 9.625 C-2.5 10.615 -2.5 11.605 -2.5 12.625 C-1.22125 12.439375 0.0575 12.25375 1.375 12.0625 C5.25 11.5 5.25 11.5 7.5 12.625 C7.5 13.615 7.5 14.605 7.5 15.625 C3.83755697 17.96896354 0.77605847 18.15012999 -3.5 17.625 C-7.19186542 15.03283917 -8.32883761 13.58350936 -9.125 9.125 C-8.11027445 3.44253693 -5.68246307 1.01472555 0 0 Z " fill="#E6E7E9" transform="translate(227.5,51.375)"/>
<path d="M0 0 C2.02734375 0.6484375 2.02734375 0.6484375 4.08984375 2.4609375 C5.02734375 4.6484375 5.02734375 4.6484375 5.02734375 8.6484375 C1.06734375 8.6484375 -2.89265625 8.6484375 -6.97265625 8.6484375 C-6.64265625 9.3084375 -6.31265625 9.9684375 -5.97265625 10.6484375 C-4.69390625 10.6278125 -3.41515625 10.6071875 -2.09765625 10.5859375 C1.77734375 10.5234375 1.77734375 10.5234375 4.02734375 11.6484375 C2.27734375 15.5234375 2.27734375 15.5234375 0.02734375 16.6484375 C-4.30592799 17.13899657 -6.29265969 17.12588189 -9.91015625 14.5859375 C-11.97265625 11.6484375 -11.97265625 11.6484375 -12.59765625 8.1484375 C-11.97265625 4.6484375 -11.97265625 4.6484375 -10.03515625 1.6484375 C-6.27474487 -0.80734136 -4.31953878 -0.76184877 0 0 Z " fill="#E6E7E9" transform="translate(364.97265625,52.3515625)"/>
<path d="M0 0 C1.98 0 3.96 0 6 0 C6 3.96 6 7.92 6 12 C7.65 11.67 9.3 11.34 11 11 C11.33 7.7 11.66 4.4 12 1 C13.65 1 15.3 1 17 1 C17.13496251 3.10241603 17.23197307 5.2072961 17.3125 7.3125 C17.37050781 8.48425781 17.42851562 9.65601563 17.48828125 10.86328125 C17 14 17 14 14.734375 15.890625 C10.68934335 17.53175213 8.3638445 17.48487161 4 17 C1.76953125 15.39453125 1.76953125 15.39453125 0 13 C-0.390625 9.765625 -0.390625 9.765625 -0.25 6.25 C-0.21390625 5.07953125 -0.1778125 3.9090625 -0.140625 2.703125 C-0.09421875 1.81109375 -0.0478125 0.9190625 0 0 Z " fill="#EFEFF1" transform="translate(318,52)"/>
<path d="M0 0 C1.65 0 3.3 0 5 0 C5 1.98 5 3.96 5 6 C5.99 6 6.98 6 8 6 C8 7.32 8 8.64 8 10 C7.01 10 6.02 10 5 10 C5 12.31 5 14.62 5 17 C5.99 17 6.98 17 8 17 C8.5625 18.9375 8.5625 18.9375 9 21 C8 22 8 22 5.125 22.3125 C2 22 2 22 0.125 20.5 C-1.50517055 16.87739877 -1.19772667 13.95453342 -1 10 C-1.66 10 -2.32 10 -3 10 C-3 8.68 -3 7.36 -3 6 C-2.01 6 -1.02 6 0 6 C0 4.02 0 2.04 0 0 Z " fill="#F2F3F4" transform="translate(255,47)"/>
<path d="M0 0 C0.66 0.33 1.32 0.66 2 1 C1.67 2.32 1.34 3.64 1 5 C-0.65 4.67 -2.3 4.34 -4 4 C-4 4.66 -4 5.32 -4 6 C-3.030625 6.309375 -2.06125 6.61875 -1.0625 6.9375 C2 8 2 8 3 9 C3.3125 11.375 3.3125 11.375 3 14 C1.4375 15.8125 1.4375 15.8125 -1 17 C-7.15151515 17.42424242 -7.15151515 17.42424242 -10 16 C-9.67 14.68 -9.34 13.36 -9 12 C-6.03 12.495 -6.03 12.495 -3 13 C-4.93254772 10.9754262 -6.63158688 9.57894208 -9 8 C-9.375 5 -9.375 5 -9 2 C-5.54337669 -0.30441554 -4.05142119 -0.25860135 0 0 Z " fill="#F3F3F4" transform="translate(348,52)"/>
<path d="M0 0 C0.66 0.33 1.32 0.66 2 1 C1.67 2.32 1.34 3.64 1 5 C-0.65 4.67 -2.3 4.34 -4 4 C-4 4.66 -4 5.32 -4 6 C-3.030625 6.309375 -2.06125 6.61875 -1.0625 6.9375 C2 8 2 8 3 9 C3.3125 11.375 3.3125 11.375 3 14 C1.4375 15.8125 1.4375 15.8125 -1 17 C-7.15151515 17.42424242 -7.15151515 17.42424242 -10 16 C-9.67 14.68 -9.34 13.36 -9 12 C-6.03 12.495 -6.03 12.495 -3 13 C-4.93254772 10.9754262 -6.63158688 9.57894208 -9 8 C-9.375 5 -9.375 5 -9 2 C-5.54337669 -0.30441554 -4.05142119 -0.25860135 0 0 Z " fill="#F3F3F4" transform="translate(248,52)"/>
<path d="M0 0 C-0.33 1.32 -0.66 2.64 -1 4 C-2.98 4 -4.96 4 -7 4 C-7.33 7.96 -7.66 11.92 -8 16 C-9.65 16 -11.3 16 -13 16 C-13 10.72 -13 5.44 -13 0 C-11.02 0 -9.04 0 -7 0 C-4.3333581 -1.33332095 -2.83319697 -0.67102033 0 0 Z " fill="#F5F5F6" transform="translate(455,53)"/>
<path d="M0 0 C6.39375383 0.60318432 6.39375383 0.60318432 8.71875 2.125 C10.64760472 4.94771422 10.2875491 7.31918017 10.1875 10.6875 C10.16042969 11.86699219 10.13335937 13.04648438 10.10546875 14.26171875 C10.07066406 15.16535156 10.03585937 16.06898437 10 17 C8.02 17 6.04 17 4 17 C3.67 13.37 3.34 9.74 3 6 C1.68 5.67 0.36 5.34 -1 5 C-0.67 3.35 -0.34 1.7 0 0 Z " fill="#E6E7E9" transform="translate(495,52)"/>
<path d="M0 0 C1.98 0 3.96 0 6 0 C6 5.61 6 11.22 6 17 C4.02 17 2.04 17 0 17 C0 11.39 0 5.78 0 0 Z " fill="#DFE0E3" transform="translate(457,52)"/>
<path d="M0 0 C3.3 0 6.6 0 10 0 C10.27734375 2.7265625 10.27734375 2.7265625 10 6 C8.06640625 8.3359375 8.06640625 8.3359375 5.5625 10.375 C4.32693359 11.40753906 4.32693359 11.40753906 3.06640625 12.4609375 C1 14 1 14 0 14 C0 9.38 0 4.76 0 0 Z " fill="#F3F4F5" transform="translate(92,7)"/>
<path d="M0 0 C3.3 0 6.6 0 10 0 C10 4.95 10 9.9 10 15 C7.2182359 11.52279488 4.96745623 8.46725493 2.75 4.6875 C2.22921875 3.80449219 1.7084375 2.92148437 1.171875 2.01171875 C0.78515625 1.34785156 0.3984375 0.68398437 0 0 Z " fill="#1F2539" transform="translate(180,0)"/>
<path d="M0 0 C1.65 0 3.3 0 5 0 C5 4.95 5 9.9 5 15 C3.35 15 1.7 15 0 15 C0 10.05 0 5.1 0 0 Z " fill="#FFFFFF" transform="translate(242,10)"/>
<path d="M0 0 C2.625 0.375 2.625 0.375 5 1 C5.625 2.875 5.625 2.875 6 5 C5.34 5.66 4.68 6.32 4 7 C1.375 6.625 1.375 6.625 -1 6 C-1.625 4.125 -1.625 4.125 -2 2 C-1.34 1.34 -0.68 0.68 0 0 Z " fill="#292F42" transform="translate(206,14)"/>
<path d="M0 0 C1.67542976 0.28604898 3.34385343 0.61781233 5 1 C6.125 4.75 6.125 4.75 5 7 C3.33388095 7.042721 1.66617115 7.04063832 0 7 C-1 6 -1 6 -1.125 3.5 C-1 1 -1 1 0 0 Z " fill="#23293D" transform="translate(304,57)"/>
<path d="M0 0 C1.67542976 0.28604898 3.34385343 0.61781233 5 1 C5 2.65 5 4.3 5 6 C2.625 6.625 2.625 6.625 0 7 C-0.66 6.34 -1.32 5.68 -2 5 C-1.46428571 1.46428571 -1.46428571 1.46428571 0 0 Z " fill="#22283C" transform="translate(473,57)"/>
<path d="M0 0 C1.67542976 0.28604898 3.34385343 0.61781233 5 1 C5 2.65 5 4.3 5 6 C2.625 6.625 2.625 6.625 0 7 C-0.66 6.34 -1.32 5.68 -2 5 C-1.46428571 1.46428571 -1.46428571 1.46428571 0 0 Z " fill="#22283C" transform="translate(427,57)"/>
<path d="M0 0 C1.67542976 0.28604898 3.34385343 0.61781233 5 1 C5 2.65 5 4.3 5 6 C2.625 6.625 2.625 6.625 0 7 C-0.66 6.34 -1.32 5.68 -2 5 C-1.46428571 1.46428571 -1.46428571 1.46428571 0 0 Z " fill="#22283C" transform="translate(277,14)"/>
<path d="M0 0 C1.67542976 0.28604898 3.34385343 0.61781233 5 1 C5.625 2.875 5.625 2.875 6 5 C5.34 5.66 4.68 6.32 4 7 C1.375 6.625 1.375 6.625 -1 6 C-1.042721 4.33388095 -1.04063832 2.66617115 -1 1 C-0.67 0.67 -0.34 0.34 0 0 Z " fill="#22283C" transform="translate(227,14)"/>
<path d="M0 0 C1.67542976 0.28604898 3.34385343 0.61781233 5 1 C4.67 2.65 4.34 4.3 4 6 C2.35 5.67 0.7 5.34 -1 5 C-1 1 -1 1 0 0 Z " fill="#ECECEE" transform="translate(243,0)"/>
<path d="M0 0 C1.65 0.33 3.3 0.66 5 1 C4.67 2.65 4.34 4.3 4 6 C2.35 5.67 0.7 5.34 -1 5 C-0.67 3.35 -0.34 1.7 0 0 Z " fill="#F6F7F7" transform="translate(458,43)"/>
<path d="M0 0 C3.96 0 7.92 0 12 0 C10.02 0.99 10.02 0.99 8 2 C7.67 2.33 7.34 2.66 7 3 C5.00041636 3.04080783 2.99954746 3.04254356 1 3 C0.67 2.01 0.34 1.02 0 0 Z " fill="#494E5F" transform="translate(358,61)"/>
<path d="M0 0 C3.63 0 7.26 0 11 0 C6.86621405 2.7558573 4.94796454 3.10756445 0 3 C0 2.01 0 1.02 0 0 Z " fill="#404556" transform="translate(225,61)"/>
</svg>
